<svg width="160" height="28" viewBox="0 0 160 28" fill="none" xmlns="http://www.w3.org/2000/svg">
<g clip-path="url(#clip0_395_2035)">
<mask id="mask0_395_2035" style="mask-type:alpha" maskUnits="userSpaceOnUse" x="0" y="0" width="29" height="28">
<path d="M6.44136 1.03162C6.44136 0.747975 6.44136 0.606151 6.38144 0.523907C6.3292 0.452165 6.24885 0.405783 6.16031 0.396247C6.05879 0.385317 5.935 0.45568 5.68743 0.596409L1.03207 3.24258C0.662177 3.45283 0.477229 3.55797 0.342677 3.70569C0.22363 3.83638 0.133657 3.9906 0.0786435 4.15826C0.0164642 4.34777 0.0164642 4.55966 0.0164642 4.98344V10.3855C0.0164642 10.9152 0.0164642 11.1801 0.0941883 11.417C0.162956 11.6266 0.275422 11.8193 0.42423 11.9827C0.592422 12.1674 0.823605 12.2988 1.28597 12.5616L6.05564 15.2727C6.42554 15.483 6.61048 15.5881 6.74503 15.7358C6.86408 15.8665 6.95404 16.0207 7.00905 16.1884C7.07124 16.3779 7.07124 16.5898 7.07124 17.0136V22.2846C7.07124 22.5684 7.07124 22.7102 7.13114 22.7924C7.18339 22.8642 7.26375 22.9106 7.35229 22.9201C7.4538 22.931 7.57758 22.8607 7.82517 22.7199L12.9883 19.7851C13.1733 19.68 13.2657 19.6274 13.333 19.5535C13.3926 19.4881 13.4375 19.411 13.465 19.3273C13.4961 19.2326 13.4961 19.1266 13.4961 18.9147V13.658C13.4961 13.1283 13.4961 12.8634 13.4184 12.6266C13.3496 12.417 13.2372 12.2242 13.0884 12.0608C12.9202 11.8762 12.689 11.7448 12.2266 11.482L7.45696 8.77083C7.08706 8.56056 6.90212 8.45545 6.76757 8.30772C6.64852 8.17703 6.55854 8.02279 6.50353 7.85514C6.44136 7.66565 6.44136 7.45376 6.44136 7.02998V1.03162Z" fill="#20C997"/>
<path d="M8.45505 0.596361C8.20748 0.455632 8.08369 0.38527 7.98219 0.396199C7.89363 0.405736 7.81328 0.452117 7.76104 0.523859C7.70113 0.606104 7.70113 0.747927 7.70113 1.03157V6.88448C7.70113 7.09637 7.70113 7.20231 7.73222 7.29706C7.75973 7.3809 7.80471 7.45801 7.86423 7.52336C7.93152 7.59722 8.02399 7.64978 8.20893 7.75491L12.876 10.4077C13.3316 10.6667 13.5594 10.7962 13.8014 10.8469C14.0155 10.8918 14.2366 10.8918 14.4507 10.8469C14.6926 10.7962 14.9204 10.6667 15.3761 10.4077L20.1808 7.67666C20.5453 7.46946 20.7275 7.36588 20.921 7.32531C21.0923 7.2894 21.2693 7.2894 21.4406 7.32531C21.6341 7.36588 21.8163 7.46946 22.1808 7.67666L27.4816 10.6897C27.7292 10.8305 27.853 10.9008 27.9544 10.8899C28.0432 10.8804 28.1234 10.834 28.1756 10.7622C28.2356 10.68 28.2356 10.5382 28.2356 10.2545V4.4016C28.2356 4.18971 28.2356 4.08377 28.2045 3.98902C28.177 3.90519 28.132 3.82808 28.0724 3.76274C28.0052 3.68887 27.9126 3.63632 27.7278 3.53118L22.4309 0.52033C21.9752 0.26134 21.7475 0.131846 21.5055 0.0811378C21.2914 0.0362679 21.0702 0.0362679 20.8561 0.0811378C20.6141 0.131846 20.3864 0.26134 19.9307 0.52033L15.1261 3.25139C14.7615 3.45857 14.5793 3.56217 14.3857 3.60273C14.2145 3.63864 14.0376 3.63864 13.8663 3.60273C13.6727 3.56217 13.4905 3.45857 13.126 3.25139L8.45505 0.596361Z" fill="#20C997"/>
<path d="M26.8352 12.636C27.086 12.4933 27.2116 12.422 27.2535 12.3287C27.2901 12.2473 27.2901 12.1542 27.2535 12.0728C27.2116 11.9795 27.086 11.9082 26.8352 11.7655L21.6808 8.83574C21.4986 8.73214 21.4074 8.68034 21.3106 8.66006C21.2251 8.64212 21.1365 8.64212 21.051 8.66006C20.9542 8.68034 20.863 8.73214 20.6808 8.83574L16.0254 11.4819C15.5631 11.7447 15.3319 11.8761 15.1637 12.0608C15.0149 12.2242 14.9024 12.4169 14.8336 12.6265C14.7559 12.8634 14.7559 13.1283 14.7559 13.658V19.06C14.7559 19.4838 14.7559 19.6957 14.6937 19.8852C14.6387 20.053 14.5487 20.2071 14.4297 20.3378C14.2951 20.4856 14.1102 20.5907 13.7403 20.801L8.47168 23.7957C8.22078 23.9382 8.09531 24.0096 8.05334 24.1029C8.01672 24.1844 8.01672 24.2774 8.05334 24.3589C8.09531 24.4522 8.22078 24.5234 8.47168 24.6661L13.126 27.3116C13.4905 27.5189 13.6727 27.6224 13.8663 27.663C14.0376 27.6989 14.2145 27.6989 14.3857 27.663C14.5793 27.6224 14.7615 27.5189 15.1261 27.3116L19.9113 24.5917C20.3737 24.3289 20.6048 24.1975 20.773 24.0128C20.9219 23.8495 21.0342 23.6567 21.103 23.447C21.1808 23.2102 21.1808 22.9453 21.1808 22.4156V17.0135C21.1808 16.5898 21.1808 16.3779 21.2431 16.1884C21.2979 16.0207 21.388 15.8665 21.5071 15.7358C21.6416 15.5881 21.8265 15.4829 22.1963 15.2727L26.8352 12.636Z" fill="#20C997"/>
</mask>
<g mask="url(#mask0_395_2035)">
<path d="M6.44136 1.03162C6.44136 0.747975 6.44136 0.606151 6.38144 0.523907C6.3292 0.452165 6.24885 0.405783 6.16031 0.396247C6.05879 0.385317 5.935 0.45568 5.68743 0.596409L1.03207 3.24258C0.662177 3.45283 0.477229 3.55797 0.342677 3.70569C0.22363 3.83638 0.133657 3.9906 0.0786435 4.15826C0.0164642 4.34777 0.0164642 4.55966 0.0164642 4.98344V10.3855C0.0164642 10.9152 0.0164642 11.1801 0.0941883 11.417C0.162956 11.6266 0.275422 11.8193 0.42423 11.9827C0.592422 12.1674 0.823605 12.2988 1.28597 12.5616L6.05564 15.2727C6.42554 15.483 6.61048 15.5881 6.74503 15.7358C6.86408 15.8665 6.95404 16.0207 7.00905 16.1884C7.07124 16.3779 7.07124 16.5898 7.07124 17.0136V22.2846C7.07124 22.5684 7.07124 22.7102 7.13114 22.7924C7.18339 22.8642 7.26375 22.9106 7.35229 22.9201C7.4538 22.931 7.57758 22.8607 7.82517 22.7199L12.9883 19.7851C13.1733 19.68 13.2657 19.6274 13.333 19.5535C13.3926 19.4881 13.4375 19.411 13.465 19.3273C13.4961 19.2326 13.4961 19.1266 13.4961 18.9147V13.658C13.4961 13.1283 13.4961 12.8634 13.4184 12.6266C13.3496 12.417 13.2372 12.2242 13.0884 12.0608C12.9202 11.8762 12.689 11.7448 12.2266 11.482L7.45696 8.77083C7.08706 8.56056 6.90212 8.45545 6.76757 8.30772C6.64852 8.17703 6.55854 8.02279 6.50353 7.85514C6.44136 7.66565 6.44136 7.45376 6.44136 7.02998V1.03162Z" fill="url(#paint0_linear_395_2035)"/>
<path d="M8.45505 0.596361C8.20748 0.455632 8.08369 0.38527 7.98219 0.396199C7.89364 0.405736 7.81328 0.452117 7.76104 0.523859C7.70113 0.606104 7.70113 0.747927 7.70113 1.03157V6.88448C7.70113 7.09637 7.70113 7.20231 7.73222 7.29706C7.75974 7.3809 7.80471 7.45801 7.86423 7.52336C7.93152 7.59722 8.02399 7.64978 8.20893 7.75491L12.876 10.4077C13.3316 10.6667 13.5594 10.7962 13.8014 10.8469C14.0155 10.8918 14.2366 10.8918 14.4507 10.8469C14.6926 10.7962 14.9204 10.6667 15.3761 10.4077L20.1808 7.67666C20.5453 7.46946 20.7275 7.36588 20.921 7.32531C21.0923 7.2894 21.2693 7.2894 21.4406 7.32531C21.6341 7.36588 21.8163 7.46946 22.1808 7.67666L27.4816 10.6897C27.7292 10.8305 27.853 10.9008 27.9544 10.8899C28.0432 10.8804 28.1234 10.834 28.1756 10.7622C28.2356 10.68 28.2356 10.5382 28.2356 10.2545V4.4016C28.2356 4.18971 28.2356 4.08377 28.2045 3.98902C28.177 3.90519 28.132 3.82808 28.0724 3.76274C28.0052 3.68887 27.9126 3.63632 27.7278 3.53118L22.4309 0.52033C21.9752 0.26134 21.7475 0.131846 21.5055 0.0811378C21.2914 0.0362679 21.0702 0.0362679 20.8561 0.0811378C20.6141 0.131846 20.3864 0.26134 19.9307 0.52033L15.1261 3.25139C14.7615 3.45857 14.5793 3.56217 14.3857 3.60273C14.2145 3.63864 14.0376 3.63864 13.8663 3.60273C13.6727 3.56217 13.4905 3.45857 13.126 3.25139L8.45505 0.596361Z" fill="url(#paint1_linear_395_2035)"/>
<path d="M26.8352 12.636C27.086 12.4933 27.2116 12.422 27.2535 12.3287C27.2901 12.2473 27.2901 12.1542 27.2535 12.0728C27.2116 11.9795 27.086 11.9082 26.8352 11.7655L21.6808 8.83574C21.4986 8.73214 21.4074 8.68034 21.3106 8.66006C21.2251 8.64212 21.1365 8.64212 21.051 8.66006C20.9542 8.68034 20.863 8.73214 20.6808 8.83574L16.0254 11.4819C15.5631 11.7447 15.3319 11.8761 15.1637 12.0608C15.0149 12.2242 14.9024 12.4169 14.8336 12.6265C14.7559 12.8634 14.7559 13.1283 14.7559 13.658V19.06C14.7559 19.4838 14.7559 19.6957 14.6937 19.8852C14.6387 20.053 14.5487 20.2071 14.4297 20.3378C14.2951 20.4856 14.1102 20.5907 13.7403 20.801L8.47169 23.7957C8.22078 23.9382 8.09532 24.0096 8.05334 24.1029C8.01673 24.1844 8.01673 24.2774 8.05334 24.3589C8.09532 24.4522 8.22078 24.5234 8.47169 24.6661L13.126 27.3116C13.4905 27.5189 13.6727 27.6224 13.8663 27.663C14.0376 27.6989 14.2145 27.6989 14.3857 27.663C14.5793 27.6224 14.7615 27.5189 15.1261 27.3116L19.9113 24.5917C20.3737 24.3289 20.6048 24.1975 20.773 24.0128C20.9219 23.8495 21.0342 23.6567 21.103 23.447C21.1808 23.2102 21.1808 22.9453 21.1808 22.4156V17.0135C21.1808 16.5898 21.1808 16.3779 21.2431 16.1884C21.2979 16.0207 21.388 15.8665 21.5071 15.7358C21.6416 15.5881 21.8265 15.4829 22.1963 15.2727L26.8352 12.636Z" fill="url(#paint2_linear_395_2035)"/>
<path opacity="0.2" d="M22.3147 16.3512L14.4725 12.0592L21.4328 7.92383L24.3618 9.42761L28.3301 12.3725L22.3147 16.3512Z" fill="url(#paint3_linear_395_2035)"/>
<path opacity="0.2" d="M14.0945 12.1846V3.15762L21.8443 -1.46021L21.9997 1.81489L21.5272 7.7673L14.0945 12.1846Z" fill="url(#paint4_linear_395_2035)"/>
<path opacity="0.2" d="M21.2147 8.25417V-0.772827L28.1747 2.58119L28.3301 5.85629L27.8576 11.8087L21.2147 8.25417Z" fill="url(#paint5_linear_395_2035)"/>
<path opacity="0.2" d="M5.85874 16.7785L13.5165 12.1688L13.6367 20.2325L10.863 22.0038L6.31495 23.95L5.85874 16.7785Z" fill="url(#paint6_linear_395_2035)"/>
<path opacity="0.2" d="M0.126701 11.5781L7.78446 6.96838L6.0949 -2.19519L3.32121 -0.423863L-1.22681 1.52224L0.126701 11.5781Z" fill="url(#paint7_linear_395_2035)"/>
<path opacity="0.2" d="M21.4642 24.2775L13.6221 19.9854L6.00045 24.2775L8.92944 25.7812L12.8977 28.726L21.4642 24.2775Z" fill="url(#paint8_linear_395_2035)"/>
</g>
<path d="M42.2393 20.9879V14.7445L37.054 5.74963H40.0276L43.5303 11.8238L47.0224 5.74963H49.996L44.8214 14.7445V20.9879H42.2393Z" fill="white"/>
<path d="M54.6151 21.3055C53.4723 21.3055 52.474 21.048 51.6204 20.533C50.7668 20.018 50.1036 19.309 49.6309 18.406C49.1653 17.4959 48.9325 16.4518 48.9325 15.2737C48.9325 14.0743 49.1724 13.0232 49.6521 12.1202C50.1318 11.2172 50.7985 10.5117 51.6521 10.0037C52.5058 9.49579 53.4934 9.24182 54.6151 9.24182C55.7651 9.24182 56.7669 9.49932 57.6205 10.0143C58.4741 10.5293 59.1373 11.2419 59.6099 12.1519C60.0826 13.0549 60.3189 14.0955 60.3189 15.2737C60.3189 16.4589 60.0791 17.5065 59.5993 18.4165C59.1267 19.3196 58.4635 20.0286 57.6099 20.5436C56.7563 21.0515 55.758 21.3055 54.6151 21.3055ZM54.6151 18.9139C55.631 18.9139 56.3859 18.5753 56.8797 17.898C57.3736 17.2208 57.6205 16.346 57.6205 15.2737C57.6205 14.1661 57.37 13.2842 56.8692 12.6281C56.3683 11.965 55.6169 11.6334 54.6151 11.6334C53.9308 11.6334 53.3665 11.7886 52.922 12.099C52.4846 12.4024 52.1601 12.8292 51.9484 13.3794C51.7368 13.9227 51.631 14.5541 51.631 15.2737C51.631 16.3813 51.8814 17.2666 52.3823 17.9298C52.8903 18.5859 53.6345 18.9139 54.6151 18.9139Z" fill="white"/>
<path d="M62.4177 20.9879L62.4389 5.74963H65.0209V15.0619L69.2009 9.55921H72.3861L67.9522 15.2736L72.7671 20.9879H69.3914L65.0209 15.4852V20.9879H62.4177Z" fill="white"/>
<path d="M73.8271 7.82377V5.48511H76.3774V7.82377H73.8271ZM73.8271 20.988V9.55924H76.3774V20.988H73.8271Z" fill="white"/>
<path d="M83.3609 20.9879V5.74963H92.5356V8.29994H85.9112V12.0989H91.2658V14.6387H85.9112V20.9879H83.3609Z" fill="white"/>
<path d="M94.4392 7.82377V5.48511H96.9895V7.82377H94.4392ZM94.4392 20.988V9.55924H96.9895V20.988H94.4392Z" fill="white"/>
<path d="M107.853 20.988V15.4853C107.853 15.1255 107.828 14.7269 107.779 14.2895C107.729 13.8521 107.613 13.4323 107.429 13.0302C107.253 12.621 106.985 12.2859 106.625 12.0249C106.272 11.7639 105.793 11.6334 105.186 11.6334C104.861 11.6334 104.54 11.6863 104.223 11.7921C103.905 11.8979 103.616 12.0813 103.355 12.3424C103.101 12.5963 102.897 12.9491 102.741 13.4006C102.586 13.845 102.509 14.4165 102.509 15.1149L100.995 14.4694C100.995 13.4958 101.182 12.614 101.556 11.8238C101.937 11.0337 102.495 10.4058 103.228 9.94021C103.962 9.46754 104.865 9.2312 105.937 9.2312C106.784 9.2312 107.482 9.3723 108.033 9.65449C108.583 9.93668 109.02 10.2965 109.345 10.7339C109.669 11.1713 109.909 11.6369 110.064 12.1307C110.219 12.6245 110.318 13.0937 110.361 13.5381C110.41 13.9755 110.435 14.3318 110.435 14.6069V20.988H107.853ZM99.9266 20.988V9.55925H102.202V13.1043H102.509V20.988H99.9266Z" fill="white"/>
<path d="M116.18 21.3055C115.355 21.3055 114.656 21.1503 114.085 20.8399C113.514 20.5224 113.08 20.1026 112.783 19.5806C112.494 19.0585 112.35 18.4836 112.35 17.8557C112.35 17.3054 112.441 16.8116 112.625 16.3742C112.808 15.9298 113.09 15.5488 113.471 15.2313C113.852 14.9068 114.346 14.6423 114.953 14.4377C115.411 14.2895 115.947 14.1555 116.561 14.0355C117.182 13.9156 117.852 13.8063 118.572 13.7075C119.298 13.6017 120.057 13.4888 120.847 13.3689L119.937 13.8874C119.944 13.0973 119.768 12.5152 119.408 12.1413C119.048 11.7674 118.441 11.5805 117.588 11.5805C117.073 11.5805 116.575 11.7004 116.096 11.9403C115.616 12.1801 115.281 12.5928 115.09 13.1784L112.762 12.4482C113.044 11.4817 113.581 10.7057 114.371 10.1201C115.168 9.53459 116.24 9.24182 117.588 9.24182C118.604 9.24182 119.496 9.40761 120.265 9.73918C121.041 10.0708 121.616 10.614 121.99 11.3688C122.194 11.771 122.318 12.1837 122.36 12.607C122.403 13.0232 122.424 13.4782 122.424 13.972V20.988H120.191V18.5118L120.561 18.9139C120.046 19.7393 119.443 20.346 118.752 20.734C118.067 21.115 117.21 21.3055 116.18 21.3055ZM116.688 19.2737C117.267 19.2737 117.761 19.1714 118.17 18.9668C118.579 18.7622 118.903 18.5118 119.143 18.2155C119.39 17.9192 119.556 17.6405 119.641 17.3795C119.775 17.055 119.849 16.6846 119.863 16.2684C119.884 15.8451 119.895 15.5029 119.895 15.2419L120.678 15.4747C119.909 15.5946 119.249 15.7005 118.699 15.7922C118.149 15.8839 117.676 15.9721 117.281 16.0567C116.886 16.1343 116.537 16.2225 116.233 16.3213C115.937 16.4271 115.686 16.5506 115.482 16.6917C115.277 16.8328 115.119 16.995 115.006 17.1784C114.9 17.3619 114.847 17.577 114.847 17.8239C114.847 18.1061 114.917 18.3566 115.059 18.5753C115.2 18.7869 115.404 18.9562 115.672 19.0832C115.947 19.2102 116.286 19.2737 116.688 19.2737Z" fill="white"/>
<path d="M132.872 20.988V15.4853C132.872 15.1255 132.847 14.7269 132.798 14.2895C132.748 13.8521 132.632 13.4323 132.449 13.0302C132.272 12.621 132.004 12.2859 131.644 12.0249C131.292 11.7639 130.812 11.6334 130.205 11.6334C129.881 11.6334 129.56 11.6863 129.242 11.7921C128.925 11.8979 128.635 12.0813 128.374 12.3424C128.12 12.5963 127.916 12.9491 127.761 13.4006C127.605 13.845 127.528 14.4165 127.528 15.1149L126.015 14.4694C126.015 13.4958 126.202 12.614 126.575 11.8238C126.956 11.0337 127.514 10.4058 128.247 9.94021C128.981 9.46754 129.884 9.2312 130.956 9.2312C131.803 9.2312 132.501 9.3723 133.052 9.65449C133.602 9.93668 134.039 10.2965 134.364 10.7339C134.688 11.1713 134.928 11.6369 135.084 12.1307C135.239 12.6245 135.337 13.0937 135.38 13.5381C135.429 13.9755 135.454 14.3318 135.454 14.6069V20.988H132.872ZM124.946 20.988V9.55925H127.221V13.1043H127.528V20.988H124.946Z" fill="white"/>
<path d="M142.781 21.3055C141.603 21.3055 140.597 21.0444 139.765 20.5224C138.932 19.9933 138.294 19.2737 137.85 18.3636C137.412 17.4536 137.19 16.4236 137.183 15.2737C137.19 14.1026 137.419 13.0655 137.871 12.1625C138.329 11.2524 138.978 10.5399 139.818 10.0249C140.657 9.50285 141.656 9.24182 142.813 9.24182C144.111 9.24182 145.208 9.56987 146.104 10.226C147.007 10.875 147.596 11.7639 147.871 12.8927L145.331 13.5805C145.134 12.9667 144.806 12.4905 144.347 12.1519C143.888 11.8062 143.366 11.6334 142.781 11.6334C142.118 11.6334 141.571 11.7921 141.141 12.1096C140.71 12.42 140.393 12.8503 140.188 13.4006C139.984 13.9509 139.881 14.5752 139.881 15.2737C139.881 16.3601 140.125 17.2384 140.611 17.9086C141.098 18.5788 141.821 18.9139 142.781 18.9139C143.458 18.9139 143.991 18.7587 144.379 18.4483C144.774 18.1379 145.07 17.6899 145.268 17.1044L147.871 17.6864C147.518 18.8504 146.901 19.7464 146.019 20.3742C145.137 20.9951 144.058 21.3055 142.781 21.3055Z" fill="white"/>
<path d="M154.665 21.3055C153.508 21.3055 152.493 21.055 151.618 20.5541C150.743 20.0532 150.059 19.3584 149.565 18.4695C149.078 17.5806 148.835 16.5576 148.835 15.4006C148.835 14.1519 149.075 13.069 149.554 12.1519C150.034 11.2277 150.701 10.5117 151.554 10.0037C152.408 9.49579 153.396 9.24182 154.518 9.24182C155.703 9.24182 156.708 9.52048 157.533 10.0778C158.366 10.6281 158.983 11.4076 159.385 12.4165C159.787 13.4253 159.939 14.614 159.84 15.9827H157.311V15.0514C157.304 13.8098 157.085 12.9032 156.655 12.3318C156.225 11.7604 155.547 11.4747 154.623 11.4747C153.579 11.4747 152.803 11.7992 152.295 12.4482C151.787 13.0902 151.533 14.032 151.533 15.2737C151.533 16.4306 151.787 17.3266 152.295 17.9615C152.803 18.5964 153.544 18.9139 154.518 18.9139C155.145 18.9139 155.685 18.7763 156.137 18.5012C156.595 18.219 156.948 17.8134 157.195 17.2843L159.713 18.0462C159.276 19.0762 158.599 19.8769 157.682 20.4483C156.772 21.0198 155.766 21.3055 154.665 21.3055ZM150.729 15.9827V14.0567H158.591V15.9827H150.729Z" fill="white"/>
</g>
<defs>
<linearGradient id="paint0_linear_395_2035" x1="2.01531" y1="0.853771" x2="21.7323" y2="27.1572" gradientUnits="userSpaceOnUse">
<stop stop-color="#20C997"/>
<stop offset="0.572917" stop-color="#96C93D"/>
<stop offset="1" stop-color="#FFD166"/>
</linearGradient>
<linearGradient id="paint1_linear_395_2035" x1="2.01531" y1="0.853723" x2="21.7323" y2="27.1571" gradientUnits="userSpaceOnUse">
<stop stop-color="#20C997"/>
<stop offset="0.572917" stop-color="#96C93D"/>
<stop offset="1" stop-color="#FFD166"/>
</linearGradient>
<linearGradient id="paint2_linear_395_2035" x1="2.01531" y1="0.853724" x2="21.7323" y2="27.1571" gradientUnits="userSpaceOnUse">
<stop stop-color="#20C997"/>
<stop offset="0.572917" stop-color="#96C93D"/>
<stop offset="1" stop-color="#FFD166"/>
</linearGradient>
<linearGradient id="paint3_linear_395_2035" x1="18.3778" y1="13.7509" x2="22.1027" y2="9.34551" gradientUnits="userSpaceOnUse">
<stop stop-color="white"/>
<stop offset="1" stop-color="white" stop-opacity="0"/>
</linearGradient>
<linearGradient id="paint4_linear_395_2035" x1="13.1497" y1="7.48534" x2="21.1492" y2="7.26371" gradientUnits="userSpaceOnUse">
<stop stop-color="white"/>
<stop offset="1" stop-color="white" stop-opacity="0"/>
</linearGradient>
<linearGradient id="paint5_linear_395_2035" x1="20.2698" y1="3.55489" x2="28.2694" y2="3.33327" gradientUnits="userSpaceOnUse">
<stop stop-color="white"/>
<stop offset="1" stop-color="white" stop-opacity="0"/>
</linearGradient>
<linearGradient id="paint6_linear_395_2035" x1="10.091" y1="14.6872" x2="12.0174" y2="20.1152" gradientUnits="userSpaceOnUse">
<stop stop-color="white"/>
<stop offset="1" stop-color="white" stop-opacity="0"/>
</linearGradient>
<linearGradient id="paint7_linear_395_2035" x1="4.35893" y1="9.48681" x2="3.05351" y2="0.622378" gradientUnits="userSpaceOnUse">
<stop stop-color="white"/>
<stop offset="1" stop-color="white" stop-opacity="0"/>
</linearGradient>
<linearGradient id="paint8_linear_395_2035" x1="17.5274" y1="21.6771" x2="9.46241" y2="27.4819" gradientUnits="userSpaceOnUse">
<stop stop-color="white"/>
<stop offset="1" stop-color="white" stop-opacity="0"/>
</linearGradient>
<clipPath id="clip0_395_2035">
<rect width="159.967" height="27.69" fill="white" transform="translate(0.0164642)"/>
</clipPath>
</defs>
</svg>
